<?xml version="1.0" encoding="utf-8"?>
<!-- Generator: Adobe Illustrator 19.0.0, SVG Export Plug-In . SVG Version: 6.00 Build 0)  -->
<svg version="1.1" id="Capa_1" xmlns="http://www.w3.org/2000/svg" xmlns:xlink="http://www.w3.org/1999/xlink" x="0px" y="0px"
	 viewBox="-514 275.7 250.3 250.3" style="enable-background:new -514 275.7 250.3 250.3;" xml:space="preserve">
<style type="text/css">
	.st0{fill:none;stroke:#181818;stroke-width:14;stroke-miterlimit:10;}
</style>
<path id="Search" class="st0" d="M-274.6,486.8l-52.2-52.2c-0.3-0.3-0.6-0.5-0.9-0.8c10.3-15.6,16.2-34.3,16.2-54.3
	c0-54.5-44.3-98.8-98.8-98.8S-509,325-509,379.5s44.3,98.8,98.8,98.8c20.1,0,38.7-6,54.3-16.2c0.3,0.3,0.5,0.6,0.8,0.9l52.2,52.2
	c7.9,7.9,20.5,7.9,28.4,0C-266.7,507.3-266.7,494.6-274.6,486.8L-274.6,486.8z M-410.2,444c-35.6,0-64.5-28.9-64.5-64.5
	s28.9-64.5,64.5-64.5s64.5,28.9,64.5,64.5S-374.6,444-410.2,444z"/>
</svg>
