<svg id="Capa_1" xmlns="http://www.w3.org/2000/svg" viewBox="-514 275.7 250.3 250.3" style="enable-background:new -514 275.7 250.3 250.3">
  <style>
    .st0{fill:#edf0ec}
  </style>
  <path class="st0" d="M-269.8 490.3l-54.4-54.4c-.3-.3-.6-.5-.9-.8 10.7-16.2 16.9-35.7 16.9-56.6 0-56.8-46.1-102.9-102.9-102.9S-514 321.8-514 378.6s46.1 102.9 102.9 102.9c20.9 0 40.3-6.2 56.6-16.9.3.3.5.6.8.9l54.4 54.4c8.2 8.2 21.4 8.2 29.6 0 8.1-8.2 8.1-21.4-.1-29.6zm-141.3-44.5c-37.1 0-67.2-30.1-67.2-67.2s30.1-67.2 67.2-67.2 67.2 30.1 67.2 67.2-30.1 67.2-67.2 67.2z" id="Search"/>
</svg>
