<svg id="Layer_1" xmlns="http://www.w3.org/2000/svg" viewBox="0 0 341.2 121.9" style="enable-background:new 0 0 341.2 121.9">
  <style>
    .st0{fill:#181818}
  </style>
  <g id="XMLID_3_">
    <path id="XMLID_4_" class="st0" d="M0 53.7V.7h13v20.8c1.1-1.6 2.6-3 4.5-3.9s4.2-1.5 6.6-1.5c3.2 0 6 .8 8.4 2.3 2.4 1.6 4.4 3.8 5.7 6.7 1.4 2.9 2 6.2 2 9.9 0 3.8-.7 7.1-2.1 10-1.4 2.9-3.3 5.1-5.7 6.8-2.4 1.6-5.2 2.4-8.3 2.4-2.4 0-4.7-.5-6.7-1.5s-3.5-2.3-4.6-4v5H0zm12.9-18.5c0 3.1.6 5.4 1.9 7 1.3 1.6 3.1 2.4 5.4 2.4 2.3 0 4.1-.8 5.3-2.4 1.2-1.6 1.8-4 1.8-7 0-2.9-.6-5.2-1.8-6.7-1.2-1.6-3-2.3-5.3-2.3s-4.1.8-5.4 2.4c-1.3 1.4-1.9 3.7-1.9 6.6z"/>
    <path id="XMLID_7_" class="st0" d="M44.7 35.5c0-3.8.7-7.2 2.1-10.1 1.4-2.9 3.3-5.2 5.8-6.8 2.4-1.6 5.2-2.4 8.3-2.4 2.4 0 4.6.5 6.6 1.5s3.6 2.4 4.7 4.1v-4.7H85v36.6H72.1v-5c-1.1 1.7-2.6 3.1-4.6 4.1-2 1-4.2 1.5-6.7 1.5-3.1 0-5.9-.8-8.3-2.3-2.4-1.5-4.4-3.7-5.7-6.6-1.4-2.8-2.1-6.1-2.1-9.9zm12.9 0c0 2.9.6 5.2 1.9 6.7 1.3 1.6 3.1 2.3 5.4 2.3 2.3 0 4.1-.8 5.3-2.4s1.9-3.9 1.9-6.8c0-3-.6-5.3-1.9-6.9-1.3-1.6-3-2.4-5.3-2.4s-4 .8-5.3 2.5-2 4-2 7z"/>
    <path id="XMLID_10_" class="st0" d="M92.1 17.2h12.2l.8 5.9c.9-2.2 2.3-3.9 4.2-5 1.9-1.2 4.1-1.8 6.5-1.8 1.8 0 3.2.3 4.1.8v11.6c-2-.9-4-1.4-5.8-1.4h-.1c-5.5 0-8.2 2.6-8.2 7.9v18.6h-13V27.7c-.1-4-.3-7.5-.7-10.5z"/>
    <path id="XMLID_12_" class="st0" d="M123.8 26.7v-9.6h6.9V8.9l13-4.2v12.5h8.8v9.6h-8.8v11.8c0 1.7.5 3 1.5 3.9 1 .9 2.3 1.3 3.9 1.3.9 0 2-.1 3.4-.4v9.9c-1.7.7-3.9 1.1-6.5 1.1h-.2c-4.9 0-8.7-1.4-11.3-4.2s-3.8-6.6-3.8-11.6V26.7h-6.9z"/>
    <path id="XMLID_14_" class="st0" d="M155.7 35.3c0-3.7.8-7 2.4-9.9 1.6-2.9 3.7-5.2 6.5-6.8 2.8-1.6 5.9-2.4 9.5-2.4 3.4 0 6.5.8 9.1 2.3 2.6 1.5 4.6 3.7 6 6.6 1.4 2.9 2.1 6.2 2.1 10v1.7h-23c.2 2.8 1 4.9 2.4 6.1 1.4 1.2 3.4 1.9 6.1 1.9 1.8 0 3.7-.3 5.5-.9s3.5-1.4 4.9-2.5l3.3 8.6c-1.8 1.3-4 2.4-6.6 3.1s-5.2 1.1-7.8 1.1c-4.2 0-7.8-.8-10.9-2.3-3.1-1.5-5.4-3.7-7.1-6.6s-2.4-6.1-2.4-10zm12.7-4.6H180c-.5-3.3-2.3-5-5.6-5-3.2 0-5.2 1.7-6 5z"/>
    <path id="XMLID_17_" class="st0" d="M197.2 53.7V.7h13v31.7l12.2-15.2h15.4l-14.4 17.5 15 19h-15.8l-12.5-15.8v15.8h-12.9z"/>
    <path id="XMLID_19_" class="st0" d="M239.6 28c0-5.2 1.1-9.8 3.2-13.7 2.1-4 5.2-7 9.1-9.2s8.6-3.3 14-3.3c3.4 0 6.6.5 9.7 1.5s5.7 2.4 7.6 4.1l-4.1 9.6c-4.2-3.1-8.5-4.6-13-4.6-4.1 0-7.3 1.3-9.5 4-2.2 2.6-3.3 6.5-3.3 11.7 0 5.2 1.1 9.1 3.3 11.8s5.4 4 9.5 4c4.5 0 8.8-1.5 13-4.5l4.1 9.6c-1.9 1.7-4.5 3.1-7.6 4.1s-6.4 1.5-9.7 1.5c-5.3 0-10-1.1-14-3.3-4-2.2-7-5.3-9.1-9.2-2.1-4.2-3.2-8.8-3.2-14.1z"/>
    <path id="XMLID_21_" class="st0" d="M289.2 10.9V0h13.6v10.9h-13.6zm.3 42.8V17.2h13v36.6h-13z"/>
    <path id="XMLID_24_" class="st0" d="M307.8 49.6l3.3-8.9c2 1.3 4.2 2.3 6.7 3 2.5.7 4.9 1.1 7.3 1.1 1.5 0 2.6-.2 3.5-.6s1.2-1 1.2-1.7c0-.6-.3-1.2-.9-1.6-.6-.4-1.7-.7-3.4-1.1l-5.9-1.3c-3.8-.7-6.5-1.9-8.1-3.5s-2.5-3.7-2.5-6.5c0-2.4.7-4.5 2.1-6.4 1.4-1.9 3.3-3.3 5.8-4.4s5.3-1.6 8.5-1.6c2.6 0 5.2.4 7.8 1.2 2.5.8 4.9 1.9 7.1 3.4l-3.5 8.7c-1.9-1.2-3.9-2.1-5.9-2.7s-3.9-1-5.7-1c-1.4 0-2.6.2-3.4.7-.8.4-1.2 1.1-1.2 1.9 0 .5.2.9.7 1.2.5.3 1.4.6 2.7.9l6.1 1.3c3.9.9 6.7 2.1 8.4 3.8s2.5 3.9 2.5 6.8c0 3.7-1.4 6.7-4.3 8.8-2.9 2.1-6.8 3.2-11.8 3.2-7.1 0-12.9-1.6-17.1-4.7z"/>
    <path id="XMLID_26_" class="st0" d="M14.5 118.5c2.7 0 4-1.6 4-4.8V87.2h3.9v27c0 2.5-.6 4.4-1.9 5.7-1.3 1.3-3 1.9-5.2 1.9-1.1 0-2.1-.1-3.2-.4v-3.3c1 .3 1.7.4 2.4.4zM18.1 77h4.8v4.4h-4.8V77z"/>
    <path id="XMLID_29_" class="st0" d="M51.3 87.2v24.1h-3.8V107c-.7 1.5-1.8 2.7-3.2 3.5-1.4.8-3.1 1.2-5 1.2-2.1 0-4-.5-5.6-1.5-1.6-1-2.9-2.5-3.7-4.3-.9-1.9-1.3-4.1-1.3-6.6s.4-4.7 1.3-6.6c.9-1.9 2.2-3.4 3.8-4.4 1.6-1.1 3.5-1.6 5.6-1.6 1.9 0 3.5.4 4.9 1.2 1.4.8 2.5 2 3.2 3.5v-4.2h3.8zM45.5 106c1.3-1.6 1.9-3.9 1.9-6.9s-.6-5.3-1.9-6.9c-1.3-1.6-3.1-2.4-5.5-2.4s-4.2.8-5.5 2.5c-1.3 1.6-2 3.9-2 6.9 0 2.9.7 5.2 2 6.8 1.3 1.6 3.2 2.4 5.6 2.4 2.3 0 4.1-.8 5.4-2.4z"/>
    <path id="XMLID_32_" class="st0" d="M76.1 87.2H80l-10.4 24.1h-3.7L55.6 87.2h4.1l8.2 19.9 8.2-19.9z"/>
    <path id="XMLID_34_" class="st0" d="M105.3 87.2v24.1h-3.8V107c-.7 1.5-1.8 2.7-3.2 3.5-1.4.8-3.1 1.2-5 1.2-2.1 0-4-.5-5.6-1.5-1.6-1-2.9-2.5-3.7-4.3-.9-1.9-1.3-4.1-1.3-6.6s.4-4.7 1.3-6.6c.9-1.9 2.2-3.4 3.8-4.4 1.6-1.1 3.5-1.6 5.6-1.6 1.9 0 3.5.4 4.9 1.2 1.4.8 2.5 2 3.2 3.5v-4.2h3.8zM99.5 106c1.3-1.6 1.9-3.9 1.9-6.9s-.6-5.3-1.9-6.9c-1.3-1.6-3.1-2.4-5.5-2.4s-4.2.8-5.5 2.5c-1.3 1.6-2 3.9-2 6.9 0 2.9.7 5.2 2 6.8 1.3 1.6 3.2 2.4 5.6 2.4 2.3 0 4.1-.8 5.4-2.4z"/>
    <path id="XMLID_37_" class="st0" d="M111.4 107.4l1.5-3c1.7 1.4 3.4 2.5 5.2 3.1 1.8.6 3.8.9 6.1.9 2.8 0 4.9-.5 6.4-1.6s2.2-2.6 2.2-4.5c0-1.2-.4-2.1-1.1-2.8-.7-.7-1.7-1.3-2.8-1.7-1.2-.4-2.7-.8-4.7-1.3-2.6-.6-4.8-1.2-6.5-1.9-1.7-.7-3.1-1.6-4.1-2.9-1.1-1.3-1.6-2.9-1.6-5 0-2 .5-3.7 1.5-5.2s2.5-2.6 4.3-3.5c1.9-.8 4.1-1.2 6.6-1.2 2.4 0 4.6.4 6.6 1.1 2 .7 3.8 1.8 5.2 3.2l-1.5 3c-1.6-1.4-3.2-2.4-4.9-3-1.6-.6-3.4-1-5.4-1-2.7 0-4.7.6-6.2 1.7s-2.3 2.7-2.3 4.7c0 1.7.7 3 2 3.9 1.3.9 3.3 1.6 6 2.3 2.9.7 5.3 1.4 6.9 1.9 1.7.6 3.1 1.5 4.2 2.7 1.1 1.2 1.7 2.8 1.7 4.8 0 1.9-.5 3.6-1.5 5.1-1 1.5-2.5 2.6-4.4 3.4-1.9.8-4.1 1.2-6.7 1.2-5.3-.1-9.6-1.5-12.7-4.4z"/>
    <path id="XMLID_39_" class="st0" d="M146.7 110.1c-1.7-1-3.1-2.5-4-4.3-.9-1.9-1.4-4.1-1.4-6.6s.5-4.7 1.4-6.6 2.3-3.4 4.1-4.4c1.8-1.1 3.8-1.6 6.2-1.6 1.6 0 3.2.3 4.7.8 1.5.6 2.8 1.3 3.8 2.3l-1.3 2.9c-1.2-1-2.4-1.7-3.5-2.1-1.1-.4-2.3-.7-3.5-.7-2.5 0-4.4.8-5.8 2.5-1.4 1.6-2.1 3.9-2.1 6.9 0 2.9.7 5.2 2.1 6.8 1.4 1.6 3.3 2.4 5.8 2.4 1.2 0 2.3-.2 3.5-.7 1.1-.4 2.3-1.2 3.5-2.1l1.3 2.9c-1 1-2.3 1.7-3.9 2.3-1.6.6-3.2.8-4.8.8-2.3.1-4.4-.5-6.1-1.5z"/>
    <path id="XMLID_41_" class="st0" d="M179.9 86.9l-.1 3.6c-.7-.3-1.6-.4-2.5-.4-2.3 0-4.1.7-5.2 2.2-1.1 1.5-1.7 3.2-1.7 5.3v13.8h-3.9V93.9c0-2.5-.1-4.8-.4-6.8h3.7l.4 4.5c.6-1.6 1.6-2.9 2.9-3.7 1.3-.9 2.9-1.3 4.6-1.3.8 0 1.5.1 2.2.3z"/>
    <path id="XMLID_43_" class="st0" d="M183.5 77h4.8v4.4h-4.8V77zm.3 34.3V87.2h3.9v24.1h-3.9z"/>
    <path id="XMLID_46_" class="st0" d="M212.9 88.2c1.6 1.1 2.9 2.5 3.8 4.4.9 1.9 1.3 4.1 1.3 6.6s-.4 4.7-1.3 6.6c-.9 1.9-2.2 3.3-3.8 4.3-1.6 1-3.5 1.5-5.6 1.5-1.9 0-3.5-.4-4.9-1.2-1.4-.8-2.5-2-3.2-3.6v14.8h-3.9V93.9c0-2.5-.1-4.8-.4-6.8h3.7l.4 4.7c.7-1.7 1.7-3 3.2-3.9s3.2-1.4 5.2-1.4c2 .1 3.9.6 5.5 1.7zm-.8 17.8c1.3-1.6 1.9-3.9 1.9-6.8s-.7-5.2-2-6.9c-1.3-1.6-3.1-2.5-5.5-2.5s-4.2.8-5.5 2.4c-1.3 1.6-1.9 3.9-1.9 6.9s.6 5.3 1.9 6.9c1.3 1.6 3.1 2.4 5.5 2.4 2.5 0 4.3-.8 5.6-2.4z"/>
    <path id="XMLID_49_" class="st0" d="M229.2 90.2v13.2c0 1.8.4 3 1.1 3.8.7.7 1.8 1.1 3.1 1.1.9 0 1.8-.1 2.6-.4v3.3c-1 .3-2.1.5-3.4.5-2.3 0-4.1-.6-5.4-1.9s-1.9-3.2-1.9-5.7V90.2h-4.7v-3.1h4.7V81l3.9-1.4v7.6h6.9v3.1h-6.9z"/>
    <path id="XMLID_51_" class="st0" d="M241.3 77.1h11.5c5.5 0 9.7 1.5 12.7 4.4 3 3 4.5 7.2 4.5 12.6 0 5.5-1.5 9.7-4.5 12.7s-7.2 4.5-12.7 4.5h-11.5V77.1zm11.2 30.9c4.4 0 7.7-1.2 10-3.5 2.2-2.3 3.3-5.7 3.3-10.3 0-9.1-4.4-13.7-13.3-13.7h-7.3V108h7.3z"/>
    <path id="XMLID_54_" class="st0" d="M296.8 99.1h-17.7c0 3.1.7 5.4 2.1 7 1.4 1.6 3.4 2.4 6.1 2.4 2.8 0 5.4-.9 7.8-2.8l1.3 2.8c-1.1 1-2.4 1.8-4.1 2.4-1.6.6-3.3.9-5.1.9-3.8 0-6.7-1.1-8.9-3.3-2.1-2.2-3.2-5.3-3.2-9.1 0-2.5.5-4.6 1.4-6.6s2.3-3.4 4-4.4c1.7-1.1 3.7-1.6 5.9-1.6 3.2 0 5.7 1 7.5 3.1 1.8 2.1 2.7 5 2.7 8.7v.5zm-15.1-7.7c-1.3 1.2-2.1 2.9-2.4 5.1h14.1c-.2-2.3-.9-4-2-5.2-1.1-1.2-2.7-1.8-4.7-1.8-2.1.1-3.8.7-5 1.9z"/>
    <path id="XMLID_57_" class="st0" d="M319.8 87.2h3.9l-10.4 24.1h-3.7l-10.3-24.1h4.1l8.2 19.9 8.2-19.9z"/>
  </g>
</svg>
