<?xml version="1.0" encoding="utf-8"?>
<!-- Generator: Adobe Illustrator 19.0.0, SVG Export Plug-In . SVG Version: 6.00 Build 0)  -->
<svg version="1.1" id="Capa_1" xmlns="http://www.w3.org/2000/svg" xmlns:xlink="http://www.w3.org/1999/xlink" x="0px" y="0px"
	 viewBox="-383 145 512 512" style="enable-background:new -383 145 512 512;" xml:space="preserve">
<style type="text/css">
	.st0{fill:#181818;}
</style>
<g>
	<g>
		<path class="st0" d="M42.6,403.4c-10-39.3-28.3-77.9-55.8-108.4c7-10.7,25.7-37.4,48.4-52.9c5-3.4,7.5-9.3,6.5-15.2
			c-1-6-5.2-10.7-11-12.4c-9.1-2.6-18.2-4-27.2-4c-8.2,0-16.1,1.1-23.7,3.3c4-8.6,9.2-18.9,14.9-27.3c3.2-4.7,3.6-10.8,0.9-15.9
			c-2.7-5.1-7.9-8.3-13.7-8.3c-0.6,0-1.2,0-1.8,0.1c-18.2,2-49.7,9.1-71.8,33.1c-5.4-12.6-14.3-32.1-22.7-43.9
			c-2.9-4.1-7.6-6.5-12.7-6.5c-5,0-9.8,2.4-12.7,6.5c-8.4,11.8-17.3,31.3-22.7,43.9c-22.1-24-53.6-31-71.8-33.1
			c-0.6-0.1-1.2-0.1-1.8-0.1c-5.7,0-11,3.2-13.7,8.3c-2.7,5.1-2.3,11.2,0.9,15.9c5.7,8.3,11,18.7,14.9,27.3
			c-7.6-2.2-15.5-3.3-23.6-3.3c-8.9,0-18.1,1.3-27.2,4c-5.8,1.7-10,6.4-11,12.4c-1,6,1.5,11.8,6.5,15.2
			c22.6,15.6,41.4,42.2,48.4,52.9c-5.9,6.6-11.6,13.8-17,21.5c-2.4,3.4-1.5,8.1,1.9,10.4c3.4,2.4,8.1,1.5,10.4-1.9
			c3.3-4.8,6.8-9.3,10.3-13.6c0.5,0.9,1.1,1.8,1.6,2.7c5,8.2,10.2,16.3,15.6,24.2c1.2,1.8,16.1,22,15.8,22.3
			c-18.6,18.4-38.2,35.8-58.8,51.9c-0.6,0.5-1.2,1-1.8,1.4c-0.3-0.4-12.9-18.4-15-21.5c-0.1-0.1-0.1-0.2-0.2-0.2
			c4.6-14.6,10.3-28.5,16.9-41.5c1.9-3.7,0.4-8.2-3.2-10.1c-3.7-1.9-8.2-0.4-10.1,3.2c-7.6,14.8-14,30.7-19,47.4
			c-21.7,72.4-16.2,154.4,12.3,224.1c10.2,24.9,35,41.6,61.9,41.6c0,0,183.8,0,183.9,0c26.9,0,51.7-16.7,61.9-41.6
			c7.3-17.9,13.2-37.5,17.6-58.4C55,506.5,55.3,453.5,42.6,403.4z M29.1,411.2c1.6,6.9,3.1,13.9,4.2,21c-3-2.1-12.6-9.1-12.6-9.1
			c0.3-0.4,5.1-7.2,7.2-10.1C28.3,412.4,28.7,411.8,29.1,411.2z M23.8,392.3c-0.1,0.1-0.1,0.2-0.2,0.3C21,396.5,11,410.8,8.7,414
			c-0.6-0.5-28.5-23.2-41.2-34.9c-6.6-6-13-12.2-19.4-18.5c1.1-1.4,2.1-2.8,3.1-4.2c7.3-9.9,14.2-20.1,20.9-30.4
			c3.1-4.8,6.1-9.6,9-14.5C-0.5,333.7,14.2,361.4,23.8,392.3z M-181.8,506.4c-0.5-0.5-6.9-7-7-6.8c1.6-1.2,21.5-17.1,29.6-24
			c11.1-9.5,21.9-19.3,32.3-29.4c0.7,0.7,1.4,1.3,2,1.9c15.8,15.2,32.3,29.6,49.4,43.3c0.8,0.7,10.3,8.5,10.5,8.2
			c-0.2,0.2-0.3,0.3-0.5,0.5c-7.2,7.1-14.6,14-22.1,20.8c-8.1,7.3-16.4,14.5-24.9,21.4c-4.5,3.7-9.8,7-14,11.1
			c-0.2,0.1-0.4,0.3-0.6,0.4c-0.2-0.1-0.4-0.3-0.6-0.4C-146.4,538.7-164.5,522.9-181.8,506.4z M-139.3,563.1
			c-0.2,0.2-40.9,28.3-62.2,40.3c-3.2,1.8-6.4,3.6-9.7,5.3c-0.1,0.1-0.2,0.1-0.3,0.2c-0.6,0.3-6-5-6.4-5.4
			c-18.3-15.5-35.8-31.9-52.4-49.2c-0.3-0.3-0.6-0.6-0.9-1c0.2-0.1,0.5-0.3,0.7-0.4c3.1-1.7,6.1-3.4,9.2-5.2
			c20.7-11.9,40.8-25,60.1-39.1c0.1-0.1,0.2-0.1,0.3-0.2c0.5,0.5,1,1,1.5,1.4c17.9,17.6,36.6,34.3,56.2,49.9
			C-143,560.2-139.4,563.2-139.3,563.1z M-95.3,336.5c7.7,8.6,15.5,17.2,23.5,25.4c-0.7,0.9-11.8,15.2-17.1,21.2
			c-12.1,14.4-24.8,28.4-38,41.8c-12.5-12.6-24.5-25.6-35.9-39.2c-1.7-2-19.9-23.2-19.2-23.8c4-4.1,8-8.3,11.9-12.5
			c13.7-14.8,26.8-30.1,39.1-46h8.3C-113.9,314.7-104.8,325.8-95.3,336.5z M-103.6,303.4h72.1c0,0,0,0,0,0c0,0,0,0.1-0.1,0.1
			c-9.1,15.3-19.1,30-29.6,44.3c-0.5,0.6-1,1.3-1.4,2c-0.3-0.3-0.6-0.6-0.9-0.9C-77.5,334.3-90.9,319.1-103.6,303.4z M-92.9,545.5
			c12.7-10.3,24.5-21.6,36.2-33c1.3-1.3,2.7-2.6,4-3.9c0.1,0.1,0.2,0.1,0.2,0.2c2.5,1.8,4.9,3.6,7.4,5.3
			c19.9,14.1,40.5,27.1,61.8,38.9c0.2,0.1,0.5,0.3,0.7,0.4c-0.3,0.3-0.6,0.6-0.9,0.9c-0.9,1-1.8,1.9-2.8,2.9
			c-15.8,16.2-32.4,31.7-49.6,46.3c-0.6,0.5-6,5.6-6.4,5.4c-0.1-0.1-0.2-0.1-0.3-0.2c-2.7-1.5-5.4-3-8.1-4.5
			c-21.8-12.2-42.9-25.9-63.1-40.6c-0.2-0.2-0.5-0.3-0.7-0.5C-107.2,557.4-100.1,551.3-92.9,545.5z M-48.9,483.2
			c-1.8,1.9-3.5,3.7-5.3,5.5c-0.2,0.2-5.6-4.3-5.9-4.5c-17.8-13.8-34.8-28.5-51.1-44c-1.7-1.6-3.3-3.2-5-4.8c1.7-1.7,3.4-3.4,5-5.2
			c8.1-8.4,16-17,23.7-25.8c8.6-9.8,17-19.9,25.1-30.3c0.4-0.6,0.9-1.1,1.3-1.7c0.5,0.5,1,0.9,1.4,1.4c11.8,11.5,24,22.7,36.6,33.4
			c1.7,1.5,22.7,18.7,22.8,18.6c-0.5,0.7-1.1,1.4-1.6,2.1C-16.5,447.3-32.3,465.7-48.9,483.2z M-280.4,229.7
			c-0.1-0.1-0.2-0.2-0.2-0.5c0.1-0.3,0.2-0.4,0.3-0.4c7.7-2.2,15.5-3.4,23-3.4c12.3,0,23.8,3,34.1,9c2.7,1.6,6.2,1.3,8.6-0.8
			c2.4-2.1,3.3-5.4,2.1-8.4c-0.4-1.1-10.8-28.3-23.8-47.3c-0.1-0.1-0.2-0.2,0-0.5c0.1-0.2,0.3-0.3,0.5-0.3
			c39.8,4.4,59.7,22.6,69.3,37.1c1.6,2.3,4.3,3.6,7.1,3.3c2.8-0.3,5.2-2.1,6.2-4.8c0.1-0.4,14-36.1,25.8-52.7
			c0.1-0.1,0.2-0.2,0.4-0.2c0.3,0,0.4,0.2,0.4,0.2c11.8,16.6,25.7,52.3,25.8,52.7c1,2.6,3.4,4.4,6.2,4.8c2.8,0.3,5.5-1,7.1-3.3
			c9.6-14.4,29.5-32.6,69.3-37.1c0.2,0,0.4,0.1,0.5,0.3c0.1,0.2,0.1,0.3,0,0.5c-12.9,19-23.3,46.1-23.8,47.3c-1.1,3-0.3,6.3,2.1,8.4
			c2.4,2.1,5.9,2.4,8.6,0.8c10.4-6,21.8-9,34.1-9c7.5,0,15.3,1.1,23,3.4c0.1,0,0.3,0.1,0.3,0.4c0,0.3-0.1,0.4-0.2,0.5
			c-26.2,18-46.8,48.2-53.5,58.7H-227C-233.7,277.9-254.2,247.7-280.4,229.7z M-220.5,306.3c-0.6-1-1.2-2-1.8-2.9h72.1
			c-10.1,12.5-20.6,24.6-31.5,36.3c-1,1-9.7,9.8-9.6,10.1c-2.8-3.8-5.5-7.5-8.2-11.3C-206.8,328-213.8,317.3-220.5,306.3z
			 M-248.2,421.8c18.8-15,36.8-30.9,54-47.7c0.5-0.5,1-0.9,1.5-1.4c0.4,0.6,0.9,1.1,1.3,1.7c12.8,16.4,26.4,32.3,40.7,47.5
			c1.1,1.1,13.1,13.7,13.1,13.7c-6.1,6-12.4,11.8-18.8,17.5c-13.1,11.8-26.7,23.1-40.7,33.9c-0.8,0.6-1.6,1.2-2.5,1.9
			c-0.7-0.8-1.5-1.5-2.2-2.3c-17.8-18.5-34.6-38-50.2-58.3c-0.5-0.7-1.1-1.4-1.6-2.1C-251.7,424.6-249.9,423.2-248.2,421.8z
			 M-282.8,411.2c0.4,0.6,0.8,1.1,1.2,1.7c2.1,2.9,6.9,9.7,7.2,10.1c0.1,0.2-10,7.3-11.1,8.1c-0.5,0.3-1,0.7-1.5,1
			C-285.9,425.1-284.5,418.1-282.8,411.2z M-286.7,536.7c-2.9-18.3-4.3-36.5-4.3-54.3c0-10.1,0.5-20.2,1.4-30.2c1.5-1,3-2,4.4-3.1
			c0.2-0.2,19.7-14.1,19.7-14.1c0.5,0.7,1.1,1.4,1.7,2.1c16.1,21,33.4,41.2,51.9,60.2c0.1,0.1,0.2,0.2,0.3,0.3
			c-0.6,0.4-1.1,0.8-1.7,1.2c-7.4,5.3-15,10.5-22.6,15.6c-12.7,8.3-41.4,25.1-42.6,25.8c-1.1,0.6-2.2,1.2-3.3,1.8
			C-283.3,540.5-286.5,536.9-286.7,536.7z M-252.9,629.2c-6.1-5.3-10.9-12-13.9-19.5c-5.7-13.9-10.5-29-14.3-45
			c0.1,0.2,1.5,1.6,2.1,2.1c16.8,17.3,34.4,33.8,52.8,49.3c0.1,0.1,0.2,0.2,0.3,0.3c0,0,0,0-0.1,0c-8.7,4.4-17.5,8.6-26.4,12.5
			C-252.6,629.1-252.7,629.2-252.9,629.2z M-218.8,642L-218.8,642c-6.4,0-12.6-1.1-18.5-3.4c0.3-0.1,0.6-0.3,1-0.5
			c7.6-3.6,15.2-7.3,22.6-11.1c0.1-0.1,0.3-0.1,0.4-0.2c0.1,0.1,0.3,0.2,0.4,0.3c6.1,4.9,19,14.7,19.3,14.8H-218.8L-218.8,642z
			 M-85.9,642h-81.9c-10.4-7.2-20.6-14.7-30.5-22.5c-0.2-0.1-0.3-0.3-0.5-0.4c0.1-0.1,0.3-0.2,0.4-0.2c12.6-7,24.9-14.4,37-22.2
			c11.7-7.6,23.1-15.5,34.3-23.8c0.1-0.1,0.2-0.1,0.3-0.2c0.1,0.1,0.2,0.1,0.3,0.2c16,11.9,32.6,23.1,49.6,33.5
			c7.1,4.4,14.4,8.6,21.7,12.6c0.1,0.1,0.3,0.2,0.4,0.2c-0.2,0.1-0.3,0.3-0.5,0.4c-2.2,1.7-4.4,3.5-6.7,5.2
			C-69.9,630.6-77.9,636.4-85.9,642z M-34.9,642h-25.3c0.2-0.2,13.2-10,19.3-14.8c0.1-0.1,0.3-0.2,0.4-0.3c0.1,0.1,0.3,0.1,0.4,0.2
			c7.8,4,15.7,7.9,23.6,11.6C-22.3,640.9-28.5,642-34.9,642z M13.1,609.8c-3.1,7.5-7.8,14.2-13.9,19.5c-0.2-0.1-0.3-0.1-0.5-0.2
			c-8.9-4-17.7-8.1-26.4-12.5c0,0,0,0-0.1,0c0.1-0.1,0.2-0.2,0.3-0.3c13.2-11.1,26-22.7,38.3-34.7c5.5-5.3,10.9-10.7,16.2-16.2
			c0.1-0.2,0.3-0.3,0.5-0.5C23.6,580.7,18.8,595.8,13.1,609.8z M33,536.7c-0.5,0.6-3.3,3.7-4.2,4.6c-0.2,0.2-0.5,0.5-0.7,0.8
			c-22.4-12.3-44.2-25.8-65-40.7c-1.7-1.2-3.4-2.5-5.1-3.7c0.5-0.5,1-1,1.5-1.5C-29,484.1-17.7,471.6-7,458.6
			c6.3-7.6,12.6-15.5,18.7-23.5c0.4,0.3,0.9,0.6,1.3,1c2.6,1.9,21.4,15.2,22.8,16.2c1,10,1.4,20.1,1.4,30.2
			C37.3,500.2,35.8,518.5,33,536.7z"/>
	</g>
</g>
</svg>
